{"title":"Requiem For A Dream[2000][Director`s Cut]BRrip[Ac3-5.1]-=[CaLvIn","uid":8152733,"size":743143575,"categoryP":"video","categoryS":"movies","magnet":"?xt=urn:btih:f4ccc7e1220672c443ab733f6dcf3030bd9ba2ee&amp;dn=Requiem+For+A+Dream%5B2000%5D%5BDirector%60s+Cut%5DBRrip%5BAc3-5.1%5D-%3D%5BCaLvIn&amp;tr=udp%3A%2F%2Ftracker.openbittorrent.com%3A80&amp;tr=udp%3A%2F%2Fopen.demonii.com%3A1337&amp;tr=udp%3A%2F%2Ftracker.coppersurfer.tk%3A6969&amp;tr=udp%3A%2F%2Fexodus.desync.com%3A6969","seeders":1,"leechers":0,"uploader":"rhythmtheguru","files":15,"time":1361090113,"description":"General\nComplete name : Requiem For A Dream[2000][Director`s Cut]BRrip[Ac3-5.1]-=[CaLvIn]=-\nImdb Link                        : http://www.imdb.com/title/tt0180093/?ref_=sr_1\nFormat                           : AVI\nFormat/Info                      : Audio Video Interleave\nFile size                        : 699 MiB\nDuration                         : 1h 41mn\nOverall bit rate                 : 963 Kbps\nWriting application              : VirtualDubMod 1.5.10.3 | www.virtualdub-fr.org || (build 2550/release)\nWriting library                  : VirtualDubMod build 2550/release\n\nVideo\nID                               : 0\nFormat                           : MPEG-4 Visual\nFormat profile                   : Advanced Simple@L5\nFormat settings, BVOP            : 2\nFormat settings, QPel            : No\nFormat settings, GMC             : No warppoints\nFormat settings, Matrix          : Default (H.263)\nCodec ID                         : XVID\nCodec ID/Hint                    : XviD\nDuration                         : 1h 41mn\nBit rate                         : 697 Kbps\nWidth                            : 720 pixels\nHeight                           : 400 pixels\nDisplay aspect ratio             : 16:9\nFrame rate                       : 23.976 fps\nColor space                      : YUV\nChroma subsampling               : 4:2:0\nBit depth                        : 8 bits\nScan type                        : Progressive\nCompression mode                 : Lossy\nBits/(Pixel*Frame)               : 0.101\nStream size                      : 506 MiB (72%)\nWriting library                  : XviD 1.2.1 (UTC 2008-12-04)\n\nAudio\nID                               : 1\nFormat                           : AC-3\nFormat/Info                      : Audio Coding 3\nMode extension                   : CM (complete main)\nCodec ID                         : 2000\nDuration                         : 1h 41mn\nBit rate mode                    : Constant\nBit rate                         : 256 Kbps\nChannel(s)                       : 6 channels\nChannel positions                : Front: L C R, Side: L R, LFE\nSampling rate                    : 48.0 KHz\nBit depth                        : 16 bits\nCompression mode                 : Lossy\nStream size                      : 186 MiB (27%)\nAlignment                        : Split accross interleaves\nInterleave, duration             : 42 ms (1.00 video frame)\nInterleave, preload duration     : 500 ms\n\n\nScreens\n &lt;a href=&quot;\nhttp://img40.imageshack.us/img40/5260/65687664.png&quot; rel=&quot;nofollow&quot; target=&quot;_NEW&quot;&gt;\nhttp://img40.imageshack.us/img40/5260/65687664.png&lt;/a&gt; &lt;a href=&quot;\nhttp://img5.imageshack.us/img5/8683/71793540.png&quot; rel=&quot;nofollow&quot; target=&quot;_NEW&quot;&gt;\nhttp://img5.imageshack.us/img5/8683/71793540.png&lt;/a&gt; &lt;a href=&quot;\nhttp://img542.imageshack.us/img542/1196/14118644.png&quot; rel=&quot;nofollow&quot; target=&quot;_NEW&quot;&gt;\nhttp://img542.imageshack.us/img542/1196/14118644.png&lt;/a&gt; &lt;a href=&quot;\nhttp://img842.imageshack.us/img842/6814/77815911.png&quot; rel=&quot;nofollow&quot; target=&quot;_NEW&quot;&gt;\nhttp://img842.imageshack.us/img842/6814/77815911.png&lt;/a&gt; &lt;a href=&quot;\nhttp://img713.imageshack.us/img713/3606/33292729.png&quot; rel=&quot;nofollow&quot; target=&quot;_NEW&quot;&gt;\nhttp://img713.imageshack.us/img713/3606/33292729.png&lt;/a&gt; &lt;a href=&quot;\nhttp://img441.imageshack.us/img441/331/69702638.png&quot; rel=&quot;nofollow&quot; target=&quot;_NEW&quot;&gt;\nhttp://img441.imageshack.us/img441/331/69702638.png&lt;/a&gt; &lt;a href=&quot;\nhttp://img824.imageshack.us/img824/1444/79908947.png&quot; rel=&quot;nofollow&quot; target=&quot;_NEW&quot;&gt;\nhttp://img824.imageshack.us/img824/1444/79908947.png&lt;/a&gt; &lt;a href=&quot;\nhttp://img28.imageshack.us/img28/8122/35395796.png&quot; rel=&quot;nofollow&quot; target=&quot;_NEW&quot;&gt;\nhttp://img28.imageshack.us/img28/8122/35395796.png&lt;/a&gt; &lt;a href=&quot;\nhttp://img837.imageshack.us/img837/8470/31247509.png&quot; rel=&quot;nofollow&quot; target=&quot;_NEW&quot;&gt;\nhttp://img837.imageshack.us/img837/8470/31247509.png&lt;/a&gt; &lt;a href=&quot;\nhttp://img90.imageshack.us/img90/6733/21161084.png&quot; rel=&quot;nofollow&quot; target=&quot;_NEW&quot;&gt;\nhttp://img90.imageshack.us/img90/6733/21161084.png&lt;/a&gt;","torrent":{"xt":"urn:btih:f4ccc7e1220672c443ab733f6dcf3030bd9ba2ee","amp;dn":"Requiem+For+A+Dream%5B2000%5D%5BDirector%60s+Cut%5DBRrip%5BAc3-5.1%5D-%3D%5BCaLvIn","amp;tr":["udp%3A%2F%2Ftracker.openbittorrent.com%3A80","udp%3A%2F%2Fopen.demonii.com%3A1337","udp%3A%2F%2Ftracker.coppersurfer.tk%3A6969","udp%3A%2F%2Fexodus.desync.com%3A6969"],"infoHash":"f4ccc7e1220672c443ab733f6dcf3030bd9ba2ee","infoHashBuffer":{"type":"Buffer","data":[244,204,199,225,34,6,114,196,67,171,115,63,109,207,48,48,189,155,162,238]},"announce":[],"urlList":[]}}